#!OML:ASF F:\VICON\USERDATA\INSTALL\rory3\rory3.ASF
:FULLY-SPECIFIED
:DEGREES
28
root -0.047479468444059536 17.94464204197523 9.719921845969324 -1.5686228149296495 -3.7936081326444095 1.6229740730467512
lfemur 11.507865028682769 -3.968005148786909 -25.512083504715054
ltibia 32.59620291734555
lfoot -1.8017723431156227 -7.687583667498861
ltoes 1.2043612944451119
rfemur -26.31043689050015 2.953415138603125 21.514402001144706
rtibia 29.056184322817707
rfoot -8.572689787369576 -1.2275104692895384
rtoes -1.4435671946594613
lowerback -1.0 -1.293172313190949 -3.4618728373135137
upperback 0.264488749271944 -2.133951833497964 1.4409310459350753
thorax -5.146231093683076 -0.9224734652473561 3.321445160047375
lowerneck -16.501312348101607 -2.5685789546571707 -2.0817537158253523
upperneck 22.63066521729141 -3.0795918721573456 -0.08384977073481692
head 9.924880641799945 -1.5883907432778392 0.0101884478908697
lclavicle 2.881341308096301e-16 -8.802107114647007e-16
lhumerus -24.10172230286952 2.0777188974940164 78.23892484605034
lradius 31.571829662872027
lwrist 6.651245779933801
lhand -29.72804184571108 18.007635593681215
lfingers nan
lthumb -2.9153727587448532 48.417112299163755
rclavicle 3.8051909871866663e-16 -7.964335281596965e-16
rhumerus -36.37985087765523 -26.192784382148364 -74.6055723408534
rradius 26.373777352585773
rwrist 2.245605917064078
rhand -17.514640744206968 -1.0
rfingers nan
rthumb 9.080556724674949 -6.443854781588237
29
root -0.02047386242220861 17.966708631684906 10.900172572295627 -1.4364264078760232 -4.119120950044835 0.5887665732087306
lfemur 11.183106514572064 -3.4818225996687344 -23.850735733774677
ltibia 38.16588177384042
lfoot -2.9328948593770305 -5.900819412436009
ltoes 1.015716262294442
rfemur -24.72382705230194 3.530979486141276 22.822506223002218
rtibia 25.8534016037785
rfoot -9.775543103287134 -3.658512536716168
rtoes -2.672111137554445
lowerback -1.0 -1.341362810159234 -2.701848954797605
upperback 0.21272293260661995 -2.0699226593999045 1.6673026231647494
thorax -5.269594848033947 -0.9238678295072573 3.1720212596373387
lowerneck -16.48534481974402 -2.570524405671556 -2.0077927337286794
upperneck 22.7653634091447 -3.0924280679112908 -0.1684557092447484
head 9.964659212471195 -1.6009736914692987 -0.044004031763811235
lclavicle 2.6659956173074625e-16 -8.943784378881263e-16
lhumerus -24.85469515904736 1.4555401347296844 78.57760169711332
lradius 30.82036477140286
lwrist 6.47127607295708
lhand -29.832689422020007 18.092119659829354
lfingers nan
lthumb -2.9578214021398965 48.65500218113988
rclavicle 3.975242075156445e-16 -7.844899071634228e-16
rhumerus -36.22183629834825 -27.43437596255652 -73.44531820178261
rradius 26.374630811214285
rwrist 3.196640245210071
rhand -17.5609314171746 -1.0
rfingers nan
rthumb 9.004035409556627 -6.6084491350872865
30
root 0.027443567827321103 17.987498266550553 12.844973642647762 -1.46435677419813 -3.9119915128110896 0.5108879031218343
lfemur 8.460662264438657 -2.94963923516197 -21.941705033962737
ltibia 44.108500352772936
lfoot -4.375323370779101 -3.3553237177405295
ltoes 0.20666481219935884
rfemur -22.246815808777384 3.4728811559223467 23.318185897697674
rtibia 24.133839954668247
rfoot -11.831601237783183 -5.680540595550762
rtoes -4.145574039624931
lowerback -1.0 -1.3925131449464174 -2.315396395081422
upperback 0.21048830704485652 -2.045392533842907 1.7887284605758724
thorax -5.298790924718418 -0.9194319566945925 3.115330692133227
lowerneck -16.60647553428312 -2.587436155913067 -1.9889498222746385
upperneck 22.77154949756985 -3.126238820997134 -0.17284244804205073
head 10.015183959998726 -1.611860669877305 -0.06060418470989516
lclavicle 3.0553132779030098e-16 -8.657551751424114e-16
lhumerus -25.488955842552457 0.09941234501889795 78.91455904427167
lradius 29.895458375954835
lwrist 6.332579709715808
lhand -29.83202946502264 18.25765877256893
lfingers nan
lthumb -2.947005151986251 49.05258036921644
rclavicle 4.1110991251043304e-16 -7.748632858946797e-16
rhumerus -35.75681806856312 -28.211287470408447 -72.66588117869439
rradius 26.337592523539463
rwrist 3.8270122987981856
rhand -17.572680328510454 -1.0
rfingers nan
rthumb 8.906353010436577 -6.898620556313683
31
root 0.07064947361100554 17.987410499612032 13.872946824079136 -2.025769298945344 -3.5708864870432233 -0.2110212646023164
lfemur 5.119709196517906 -2.297344059203255 -20.053798787256735
ltibia 49.76576092710025
lfoot -5.448982858880049 -1.4389318145124486
ltoes -1.3718153236498876
rfemur -19.3264422179513 3.3353699602386326 24.28969348089434
rtibia 23.4097373550702
rfoot -15.082260851760209 -6.911753581840612
rtoes -6.1687070109821125
lowerback -1.0 -1.3136363661633914 -1.4654337602733638
upperback 0.19876151945516543 -1.7689136439980384 1.9052789876519869
thorax -5.30433078091328 -0.8359426377753485 2.8953289566431892
lowerneck -16.58682678286981 -2.5999957439229378 -1.9325632053199706
upperneck 22.69532831628227 -3.150845760925367 -0.13162477582945664
head 9.973639076553926 -1.6273741617711344 -0.05014501425438103
lclavicle 2.8578485448019277e-16 -8.834268171703827e-16
lhumerus -26.092233217685177 -1.165135445629221 79.33241830562925
lradius 28.128569834048275
lwrist 6.464713408350057
lhand -29.76372072139001 17.792144347094553
lfingers nan
lthumb -2.845687445667083 48.717149022926165
rclavicle 3.8687134242981713e-16 -7.952803025360987e-16
rhumerus -34.87024704322036 -28.98037324689693 -72.45165847049638
rradius 26.444235302037015
rwrist 4.015867195534589
rhand -17.556638704465815 -1.0
rfingers nan
rthumb 8.970710091045607 -6.869291408882054
